<svg xmlns="http://www.w3.org/2000/svg" width="437.227" height="159.9" viewBox="0 0 437.227 159.9">
  <g id="eber-lgw-black" transform="translate(-12.9 -14.1)">
    <g id="Group_21" data-name="Group 21">
      <path id="Path_10" data-name="Path 10" d="M92.4,174h-.3c0-.1,0-.1-.1-.2a9.429,9.429,0,0,1-1-1L49.9,131.7,27.7,109.5l-12-12c-.9-.9-1.7-1.8-2.6-2.6h-.2v-.5a.367.367,0,0,0,.3-.1c.3-.3.5-.6.8-.9l6.1-6.1C26.9,80.5,33.7,73.8,40.4,67L65.6,41.8c7-7,14-14,21-21.1,1.8-1.8,3.5-3.6,5.3-5.3a15.933,15.933,0,0,0,1.3-1.3h.6l.6.6c5.3,5.3,10.6,10.6,15.9,16,6.9,7,13.8,14,20.7,20.9l8.8,8.8.5.5a.785.785,0,0,1,0,1.1,4.35,4.35,0,0,0-.6.7l-8.9,8.9L113.1,89.3l-11.6,11.6-7.9,7.9-.5.5a.6.6,0,0,1-.8,0c-.2-.1-.3-.3-.4-.4L78.5,95.5,78,95c-.2-.2-.2-.4,0-.7.2-.2.4-.5.6-.7L94.8,77.4l2.1-2.1L110,62.2c.1-.1.3-.2.4-.4a.75.75,0,0,0,0-.9c-.2-.2-.3-.4-.5-.6l-5.7-5.7L94.6,45l-.6-.6a.608.608,0,0,0-.8,0,2.651,2.651,0,0,0-.6.5l-3.4,3.4C82,55.6,74.7,62.8,67.5,70.1L44.3,93.3l-.5.5c-.3.4-.4.7,0,1.1l.6.6,17.8,17.8L86.9,138l4.7,4.7.5.5c.4.3.6.3.9,0l.6-.6c8.4-8.4,16.7-16.8,25.1-25.1l38.4-38.4a2.651,2.651,0,0,1,.6-.5.668.668,0,0,1,1,0l.6.6L172,91.9a5.8,5.8,0,0,1,1,1.2v.2a3.126,3.126,0,0,1-.9,1.1l-24,24-17.5,17.5c-11.4,11.4-22.8,22.9-34.3,34.3C94.8,171.7,93.6,172.8,92.4,174Z"/>
    </g>
    <g id="Group_22" data-name="Group 22">
      <path id="Path_11" data-name="Path 11" d="M223.9,121.1V67.2h42.4v6.2H230.6V89.2h21.6v6.2H230.6v19.5h37.9v6.2Z" stroke="#000" stroke-miterlimit="10" stroke-width="3"/>
      <path id="Path_12" data-name="Path 12" d="M284.8,121.1V79.5h25.6c4.2,0,7.4.9,9.6,2.6s3.3,4.3,3.3,7.7a9.329,9.329,0,0,1-1,4.5,8.371,8.371,0,0,1-3,3.2,13.506,13.506,0,0,1,5.2,4.8,12.449,12.449,0,0,1-2.1,15.5c-2.6,2.2-6.2,3.3-10.7,3.3Zm25.4-35.6H291.3v9.8h19a7.558,7.558,0,0,0,4.7-1.2,4.319,4.319,0,0,0,1.6-3.7,4.443,4.443,0,0,0-1.6-3.7A7.69,7.69,0,0,0,310.2,85.5Zm2.2,15.9H291.3v13.7h21.1a7.4,7.4,0,0,0,5.3-1.8,6.568,6.568,0,0,0,1.9-5.1,6.485,6.485,0,0,0-1.9-5A7.238,7.238,0,0,0,312.4,101.4Z" stroke="#000" stroke-miterlimit="10" stroke-width="3"/>
      <path id="Path_13" data-name="Path 13" d="M346.3,121.1V79.4h39.1v6.1H352.8V95.9h21.4v6H352.8v13.2h34.4v6Z" stroke="#000" stroke-miterlimit="10" stroke-width="3"/>
      <path id="Path_14" data-name="Path 14" d="M410.3,102.8V121h-6.5V79.4h28.7c4.3,0,7.6,1,10,3.1a10.674,10.674,0,0,1,3.6,8.5,11.34,11.34,0,0,1-2.9,7.7,12.061,12.061,0,0,1-7.4,4L447.4,121h-7.1l-11.8-18.2Zm0-6.1h22.2a8.052,8.052,0,0,0,5.2-1.5,5.8,5.8,0,0,0,0-8.4c-1.2-1-2.9-1.4-5.2-1.4H410.3Z" stroke="#000" stroke-miterlimit="10" stroke-width="3"/>
    </g>
  </g>
</svg>
